<?xml version="1.0" standalone="no"?><!DOCTYPE svg PUBLIC "-//W3C//DTD SVG 1.1//EN" "http://www.w3.org/Graphics/SVG/1.1/DTD/svg11.dtd"><svg t="1559839690004" class="icon" style="" viewBox="0 0 1024 1024" version="1.1" xmlns="http://www.w3.org/2000/svg" p-id="974" xmlns:xlink="http://www.w3.org/1999/xlink" width="200" height="200"><defs><style type="text/css"></style></defs><path d="M512 0v170c66.4 0 123.8 11.2 170.8 33.2 45.8 21.6 82.2 53.4 108.2 94.6 53.2 84.4 60.8 204 23 355.8-16 63.8-36.6 119.6-51 154.8-8.8 21.6-34.2 31.4-55.2 21.2l-34.8-16.6c-19.4-9.2-28.2-32-20.2-52 12.8-31.6 31.4-81.8 45.4-138.4 28.6-116.2 25.6-206.6-8.6-261-30.6-48.2-88.6-71.6-177.6-71.6v161c48 0 87 39 87 87S560 625 512 625V1024c282.8 0 512-229.2 512-512S794.8 0 512 0z" fill="#ff0000" p-id="975"></path><path d="M425 538c0-48 39-87 87-87V290c-89 0-147.2 23.4-177.6 71.8-34.6 54.8-37.4 145.8-8.2 262.8 14 55.8 32.2 105 44.8 136.2 8.2 20-0.6 42.8-20.2 52l-34.8 16.6c-21.2 10.2-46.4 0.4-55.2-21.2-14.4-35.2-35.2-91-51-154.8-37.8-151.8-30-271.6 23-355.8 26-41.2 62.4-73 108.2-94.6C388.2 181.2 445.6 170 512 170V0C229.2 0 0 229.2 0 512s229.2 512 512 512V625c-48 0-87-39-87-87z" fill="#aa0000" p-id="976"></path></svg>